<svg width="479" height="479" viewBox="0 0 479 479" fill="none" xmlns="http://www.w3.org/2000/svg">
<mask id="path-1-inside-1_313_30" fill="white">
<path d="M239.054 64.0544C285.467 64.0544 329.979 82.4919 362.798 115.311C395.617 148.13 414.054 192.642 414.054 239.054C414.054 285.467 395.617 329.979 362.798 362.798C329.979 395.617 285.467 414.054 239.054 414.054L239.054 239.054L239.054 64.0544Z"/>
</mask>
<path d="M239.054 64.0544C285.467 64.0544 329.979 82.4919 362.798 115.311C395.617 148.13 414.054 192.642 414.054 239.054C414.054 285.467 395.617 329.979 362.798 362.798C329.979 395.617 285.467 414.054 239.054 414.054L239.054 239.054L239.054 64.0544Z" fill="#0153FF" stroke="black" stroke-width="4" mask="url(#path-1-inside-1_313_30)"/>
<mask id="path-2-inside-2_313_30" fill="white">
<path d="M244.005 413.984C215.05 414.804 186.345 408.423 160.465 395.415C134.584 382.407 112.336 363.178 95.7185 339.453L239.054 239.054L244.005 413.984Z"/>
</mask>
<path d="M244.005 413.984C215.05 414.804 186.345 408.423 160.465 395.415C134.584 382.407 112.336 363.178 95.7185 339.453L239.054 239.054L244.005 413.984Z" fill="#88B8FD" stroke="black" stroke-width="4" mask="url(#path-2-inside-2_313_30)"/>
<mask id="path-3-inside-3_313_30" fill="white">
<path d="M99.9452 345.232C82.1501 321.917 70.5002 294.504 66.066 265.512C61.6318 236.519 64.5555 206.877 74.5686 179.31L239.054 239.054L99.9452 345.232Z"/>
</mask>
<path d="M99.9452 345.232C82.1501 321.917 70.5002 294.504 66.066 265.512C61.6318 236.519 64.5555 206.877 74.5686 179.31L239.054 239.054L99.9452 345.232Z" fill="#EE0000" stroke="black" stroke-width="4" mask="url(#path-3-inside-3_313_30)"/>
<mask id="path-4-inside-4_313_30" fill="white">
<path d="M72.1762 186.361C83.7887 149.584 107.224 117.674 138.841 95.5892L239.054 239.054L72.1762 186.361Z"/>
</mask>
<path d="M72.1762 186.361C83.7887 149.584 107.224 117.674 138.841 95.5892L239.054 239.054L72.1762 186.361Z" fill="#FFC700" stroke="black" stroke-width="4" mask="url(#path-4-inside-4_313_30)"/>
<path d="M137.691 98.1963C166.687 77.3526 204.285 66.0505 240.045 65.5653L238.414 236.355L137.691 98.1963Z" fill="#8FFF00" stroke="black" stroke-width="2"/>
<circle cx="239.054" cy="239.054" r="150" fill="white" stroke="black" stroke-width="2"/>
</svg>
