<svg width="410" height="513" viewBox="0 0 410 513" fill="none" xmlns="http://www.w3.org/2000/svg">
<path d="M173.436 51.3514C180.236 -0.648605 184.094 7.83594 186.936 6.35139C209.936 -5.66406 220.936 15.8535 220.936 51.3514C254.935 227.852 353.936 254.851 382.436 292.351C410.936 329.851 429.936 375.851 353.936 467.351C277.936 558.851 209.936 479.351 173.436 447.851C10.4361 530.351 -13.5639 391.351 11.4361 310.851C36.4361 230.351 164.936 116.351 173.436 51.3514Z" fill="#0153FF" stroke="black" stroke-width="5"/>
<path d="M191.434 333.336C189.834 324.936 197.767 174.503 201.934 100.336V238.336C201.934 256.336 197.602 356.836 195.436 404.836C190.269 414.836 179.535 433.236 177.935 426.836C175.935 418.836 193.434 343.836 191.434 333.336Z" fill="#00236D"/>
<path d="M251.935 222.332C223.135 202.732 209.602 129.832 206.435 95.8324C205.435 66.4991 204.835 25.4324 210.435 95.8324C217.435 183.832 287.935 246.832 251.935 222.332Z" fill="#ACC6FF"/>
<path d="M157.935 222.332C181.535 211.13 191.769 142 193.935 108.836C191.935 90.0026 188.235 64.3359 189.435 112.336C190.935 172.336 128.435 236.336 157.935 222.332Z" fill="#ACC6FF"/>
<path d="M166.936 128.336C164.536 135.136 139.936 168.836 127.936 184.836C148.936 155.836 172.436 98.8359 180.436 82.8359C186.489 70.7281 169.936 119.836 166.936 128.336Z" fill="#ACC6FF"/>
<path d="M251.935 222.332C223.135 202.732 209.602 129.832 206.435 95.8324C205.435 66.4991 204.835 25.4324 210.435 95.8324C217.435 183.832 287.935 246.832 251.935 222.332Z" stroke="black"/>
<path d="M157.935 222.332C181.535 211.13 191.769 142 193.935 108.836C191.935 90.0026 188.235 64.3359 189.435 112.336C190.935 172.336 128.435 236.336 157.935 222.332Z" stroke="black"/>
<path d="M166.936 128.336C164.536 135.136 139.936 168.836 127.936 184.836C148.936 155.836 172.436 98.8359 180.436 82.8359C186.489 70.7281 169.936 119.836 166.936 128.336Z" stroke="black"/>
<path d="M98.9353 244.337C70.9353 261.137 52.602 311.003 46.9353 333.837C42.4353 330.837 37.4353 316.037 53.4353 280.837C73.4353 236.837 133.935 223.337 98.9353 244.337Z" fill="#ACC6FF"/>
<path d="M188.435 376.837C189.235 398.837 179.435 417.67 174.435 424.337L170.935 411.836C172.101 401.336 174.435 379.136 174.435 374.336C174.435 368.336 184.435 299.337 183.435 258.837C182.435 218.337 205.435 201.837 199.435 207.837C193.435 213.837 192.435 236.837 191.935 251.337C191.435 265.837 187.435 349.337 188.435 376.837Z" fill="#ACC6FF"/>
<path d="M367.935 370.836C379.935 319.636 348.268 284.836 330.935 273.836C340.268 289.003 358.935 328.636 358.935 365.836C358.935 403.036 342.935 417.336 334.935 419.836C340.935 424.836 355.935 422.036 367.935 370.836Z" fill="#ACC6FF"/>
<path d="M103.935 444.336C81.6013 442.169 33.6346 424.436 20.4346 370.836C3.93464 303.836 -0.0653687 468.836 103.935 444.336Z" fill="#ACC6FF"/>
<path d="M262.436 470.336C228.036 473.136 214.436 446.503 211.936 432.836C201.936 467.836 233.436 477.836 244.436 480.836C255.436 483.836 305.436 466.836 262.436 470.336Z" fill="#ACC6FF"/>
<path d="M98.9353 244.337C70.9353 261.137 52.602 311.003 46.9353 333.837C42.4353 330.837 37.4353 316.037 53.4353 280.837C73.4353 236.837 133.935 223.337 98.9353 244.337Z" stroke="black"/>
<path d="M188.435 376.837C189.235 398.837 179.435 417.67 174.435 424.337L170.935 411.836C172.101 401.336 174.435 379.136 174.435 374.336C174.435 368.336 184.435 299.337 183.435 258.837C182.435 218.337 205.435 201.837 199.435 207.837C193.435 213.837 192.435 236.837 191.935 251.337C191.435 265.837 187.435 349.337 188.435 376.837Z" stroke="black"/>
<path d="M367.935 370.836C379.935 319.636 348.268 284.836 330.935 273.836C340.268 289.003 358.935 328.636 358.935 365.836C358.935 403.036 342.935 417.336 334.935 419.836C340.935 424.836 355.935 422.036 367.935 370.836Z" stroke="black"/>
<path d="M103.935 444.336C81.6013 442.169 33.6346 424.436 20.4346 370.836C3.93464 303.836 -0.0653687 468.836 103.935 444.336Z" stroke="black"/>
<path d="M262.436 470.336C228.036 473.136 214.436 446.503 211.936 432.836C201.936 467.836 233.436 477.836 244.436 480.836C255.436 483.836 305.436 466.836 262.436 470.336Z" stroke="black"/>
<path d="M200.435 36.8359V91.8359C200.435 99.3359 179.435 66.8359 200.435 36.8359Z" fill="#ACC6FF"/>
<path fill-rule="evenodd" clip-rule="evenodd" d="M140.558 412.78L125.085 340.423L125.129 340.503L176.681 314.439L165.018 309.636L123.034 330.84L114.011 288.63L83.4238 276.034L97.8691 343.589L97.8666 343.582L41.5797 372.019L53.2424 376.822L99.9298 353.222L109.971 400.184L140.558 412.78ZM105.766 295.527L127.458 397.093L118.216 393.287L96.4798 291.703L105.766 295.527Z" fill="white"/>
<path fill-rule="evenodd" clip-rule="evenodd" d="M235.068 382.636C235.358 382.733 235.657 382.803 235.959 382.845C237.869 387.345 239.768 391.85 241.656 396.359C245.052 404.472 248.474 412.829 249.223 415.232C250.161 418.188 251.147 420.2 252.227 421.577C252.787 422.279 253.428 422.9 254.184 423.372C254.578 423.619 255 423.818 255.44 423.966C257.6 424.776 259.571 424.439 260.806 424.027C261.531 423.78 262.221 423.439 262.858 423.015L262.892 423.001L281.967 411.108L304.006 427.996C304.33 428.246 304.681 428.455 305.059 428.624C307.705 429.771 310.27 430.176 312.687 429.852C315.09 429.515 317 428.509 318.424 427.368C320.06 426.05 321.363 424.367 322.231 422.454L322.292 422.306L322.312 422.252L322.326 422.225V422.211L322.332 422.205C322.45 421.914 322.54 421.614 322.602 421.307L342.717 319.888C342.781 319.563 342.813 319.233 342.812 318.903C342.812 315.933 341.691 313.104 339.066 311.397C336.811 309.932 334.307 309.864 332.721 309.986C331.02 310.121 329.44 310.539 328.38 310.877C327.787 311.065 327.202 311.277 326.625 311.511L326.551 311.545L213.732 355.798L213.718 355.805C213.336 355.945 212.96 356.101 212.591 356.271C211.696 356.673 210.838 357.152 210.026 357.702C208.494 358.748 204.963 361.623 205.564 366.375C206.037 370.155 208.629 372.484 210.215 373.605C211.079 374.219 211.902 374.658 212.51 374.948C212.78 375.083 213.36 375.312 213.61 375.42L213.678 375.441L235.068 382.636ZM330.5 320.86H330.486C330.428 320.886 330.37 320.911 330.311 320.934L217.356 365.248C217.298 365.272 217.24 365.294 217.181 365.316L217.113 365.336C216.907 365.417 216.704 365.507 216.506 365.606C216.694 365.713 216.888 365.81 217.086 365.896L238.295 373.038C238.674 373.165 239.036 373.338 239.375 373.551L309.42 332.544L309.487 332.511C309.759 332.345 310.039 332.192 310.324 332.052C310.81 331.802 311.586 331.437 312.464 331.167C313.071 330.978 314.874 330.445 316.818 331.073C317.849 331.398 318.768 332.006 319.47 332.829C320.171 333.651 320.628 334.654 320.787 335.724C321.038 336.66 321.045 337.646 320.807 338.586C320.334 340.442 319.038 341.886 317.857 342.993C316.845 343.938 303.709 356.601 290.756 369.102L273.118 386.112L269.979 389.15L309.615 419.538C310.15 419.763 310.731 419.856 311.31 419.808C311.601 419.769 311.875 419.647 312.099 419.457C312.373 419.226 312.608 418.953 312.795 418.647L312.808 418.641L332.316 320.273C331.701 320.421 331.099 320.615 330.513 320.853L330.5 320.86ZM273.388 404.52L265.477 398.458L263.56 410.642L273.388 404.52ZM258.221 386.43L266.085 378.836L283.722 361.812L290.29 355.481L246.28 381.246L246.516 381.799C249.292 388.356 252.037 394.926 254.751 401.509L256.662 389.359C256.835 388.232 257.384 387.204 258.221 386.43Z" fill="white"/>
</svg>
